# xmcd CD database file
#
# Track frame offsets:
#	182
#	11860
#	33360
#	51490
#	69075
#	86565
#	105772
#	124027
#	140997
#	160147
#	177327
#	191002
#
# Disc length: 2809 seconds
#
# Revision: 2
# Processed by: cddbd v1.4b41PL1 Copyright (c) Steve Scherf et al.
# Submitted via: Feurio! 1.50.2ß - http://www.feurio.com
#
DISCID=a00af70c
DTITLE=Various Artist - Superhits der 80er [CD3)
DYEAR=1900
DGENRE=
TTITLE0=Electronica's - Dancy Little Bird
TTITLE1=Roy Black - Bella Bella Marie (Medlex)
TTITLE2=Tommy Steiner - Das Mädchen von Rhodos
TTITLE3=Nino De Angelo - Jenseits von Eden
TTITLE4=Angelika Milster - Erinnerung
TTITLE5=Opus - Live Is Live
TTITLE6=Udo Lindenberg - Horizont
TTITLE7=Hubert Kah - Rosemarie
TTITLE8=Hanne Haller - Mein lieber Mann
TTITLE9=Mike Krüger - Der Nippel
TTITLE10=Duo California - Ich glaub' an die Liebe
TTITLE11=Party Service Band - Mit Dir sofort und ihne Ende
EXTD=
EXTT0=
EXTT1=
EXTT2=
EXTT3=
EXTT4=
EXTT5=
EXTT6=
EXTT7=
EXTT8=
EXTT9=
EXTT10=
EXTT11=
PLAYORDER=
